<svg xmlns="http://www.w3.org/2000/svg"  viewBox="0 0 56.38898 53.55433" gorn="0" height="18.89278mm" id="Layer_1" data-name="Layer 1" width="19.89278mm">
    <desc >
        <referenceFile >Ra-01-LoRa-pcb.svg</referenceFile>
    </desc>
    <title >Ra-01-LoRa-pcb</title>
    <g  gorn="0.2" id="silkscreen">
        <rect  stroke-width="1" gorn="0.2.0" height="52.55433" id="outline" width="55.38898" y="0.5" stroke-miterlimit="10" x="0.5" fill="none" stroke="#fff"/>
    </g>
    <g  gorn="0.3" id="copper1">
        <rect  gorn="0.3.0" height="2.83465" id="connector16male" width="7.2" y="5.68629" x="47.27165" fill="#f5bd18"/>
        <rect  gorn="0.3.1" height="2.83465" id="connector15male" width="7.2" y="11.30112" x="47.27165" fill="#f5bd18"/>
        <rect  gorn="0.3.2" height="2.83465" id="connector14male" width="7.2" y="16.97041" x="47.2676" fill="#f5bd18"/>
        <rect  gorn="0.3.3" height="2.83465" id="connector13male" width="7.2" y="22.6397" x="47.23727" fill="#f5bd18"/>
        <rect  gorn="0.3.4" height="2.83465" id="connector12male" width="7.2" y="28.30899" x="47.25446" fill="#f5bd18"/>
        <rect  gorn="0.3.5" height="2.83465" id="connector11male" width="7.2" y="33.92382" x="47.25446" fill="#f5bd18"/>
        <rect  gorn="0.3.6" height="2.83465" id="connector10male" width="7.2" y="39.59311" x="47.25041" fill="#f5bd18"/>
        <rect  gorn="0.3.7" height="2.83465" id="connector9male" width="7.2" y="45.2624" x="47.22008" fill="#f5bd18"/>
        <rect  gorn="0.3.8" height="2.83465" id="connector8male" width="7.2" y="5.71352" x="1.94311" fill="#f5bd18"/>
        <rect  gorn="0.3.9" height="2.83465" id="connector7male" width="7.2" y="11.32835" x="1.94311" fill="#f5bd18"/>
        <rect  gorn="0.3.10" height="2.83465" id="connector6male" width="7.2" y="16.99764" x="1.93906" fill="#f5bd18"/>
        <rect  gorn="0.3.11" height="2.83465" id="connector5male" width="7.2" y="22.66693" x="1.90873" fill="#f5bd18"/>
        <rect  gorn="0.3.12" height="2.83465" id="connector4male" width="7.2" y="28.33622" x="1.92592" fill="#f5bd18"/>
        <rect  gorn="0.3.13" height="2.83465" id="connector3male" width="7.2" y="33.95105" x="1.92592" fill="#f5bd18"/>
        <rect  gorn="0.3.14" height="2.83465" id="connector2male" width="7.2" y="39.62034" x="1.92187" fill="#f5bd18"/>
        <rect  gorn="0.3.15" height="2.83465" id="connector1male" width="7.2" y="45.28963" x="1.89153" fill="#f5bd18"/>
    </g>
</svg>
